<svg width="200" height="200" xmlns="http://www.w3.org/2000/svg">
  <!-- Background -->
  <rect width="200" height="200" fill="#17414A" rx="20"/>
  
  <!-- Brain Icon -->
  <g transform="translate(100, 100)">
    <!-- Left hemisphere -->
    <path d="M -30,-20 Q -40,-30 -35,-40 Q -30,-50 -20,-45 Q -15,-40 -15,-30 L -15,20 Q -20,30 -30,25 Q -40,20 -35,10 Q -30,0 -30,-20 Z" 
          fill="#00BFFF" opacity="0.8"/>
    
    <!-- Right hemisphere -->
    <path d="M 30,-20 Q 40,-30 35,-40 Q 30,-50 20,-45 Q 15,-40 15,-30 L 15,20 Q 20,30 30,25 Q 40,20 35,10 Q 30,0 30,-20 Z" 
          fill="#00BFFF" opacity="0.8"/>
    
    <!-- Circuit lines -->
    <line x1="-15" y1="-10" x2="15" y2="-10" stroke="#00BFFF" stroke-width="2"/>
    <line x1="-15" y1="0" x2="15" y2="0" stroke="#00BFFF" stroke-width="2"/>
    <line x1="-15" y1="10" x2="15" y2="10" stroke="#00BFFF" stroke-width="2"/>
    
    <!-- Circuit nodes -->
    <circle cx="-15" cy="-10" r="3" fill="#00FFFF"/>
    <circle cx="15" cy="-10" r="3" fill="#00FFFF"/>
    <circle cx="-15" cy="0" r="3" fill="#00FFFF"/>
    <circle cx="15" cy="0" r="3" fill="#00FFFF"/>
    <circle cx="-15" cy="10" r="3" fill="#00FFFF"/>
    <circle cx="15" cy="10" r="3" fill="#00FFFF"/>
  </g>
  
  <!-- Text -->
  <text x="100" y="170" font-family="Arial, sans-serif" font-size="24" font-weight="bold" 
        fill="#00BFFF" text-anchor="middle">STARK X</text>
</svg>
